<svg id="Layer_1" data-name="Layer 1" xmlns="http://www.w3.org/2000/svg" 
viewBox="0 0 299.34 133.67"><defs><style>.cls-1{fill:#1d1d1b;}</style></defs>
<title>sign</title><path class="cls-1" d="M42.38,34.91A56.25,56.25,0,0,0,27.33,69.84c-.
17,2.87-.68,6.92,2.4,8.46,2.66,1.33,5.79-.36,7.78-2.15,2.59-2.34,5-5,7.33-7.56s4.78-5.29,
7.07-8A233.38,233.38,0,0,0,66.27,41.63c1.49-2.18-2-4.87-3.68-2.84C49,54.75,36.46,71.92,28.
66,91.5a110.12,110.12,0,0,0-5.23,17c-.64,2.94,3.87,4.19,4.52,1.24,4.4-20,14.82-37.91,27.
06-54.1,3.49-4.61,7.15-9.09,10.9-13.49l-3.68-2.84A225.07,225.07,0,0,1,38.57,68.42Q37,70
.06,35.38,71.66a9,9,0,0,1-2.73,2.18,7.37,7.37,0,0,1-.71.23c-.61.39,0-.25,0,.14a37.34,37.
34,0,0,1,0-4,51.28,51.28,0,0,1,3.59-16.16,50.59,50.59,0,0,1,10.1-15.87c2.07-2.19-1.24-5.
52-3.31-3.31Z" 
transform="translate(0 0)"/>
<path class="cls-1" d="M3.52,133.33c24-17.08,48-34.22,73.85-48.32,7.26-4,14.65-7.65,22.
19-11l-2.84-3.68A351.45,351.45,0,0,0,66,111.58q-3.94,6.19-7.61,12.55c-1.13,2,1.19,4.53,
3.2,3.21l5.16-3.4c2.5-1.65.16-5.71-2.37-4l-5.15,3.4,3.2,3.21A344.11,344.11,0,0,1,90.81,
84.73q4.5-5.67,9.23-11.13a2.36,2.36,0,0,0-2.84-3.68C70.32,82,45.53,98.08,21.44,114.92c-6.
79,4.74-13.54,9.55-20.29,14.37a2.41,2.41,0,0,0-.84,3.2,2.36,2.36,0,0,0,3.21.84Z" 
transform="translate(0 0)"/><path class="cls-1" d="M109.94,88.33a257.69,257.69,0,0,0-11.
51,40.81c-.37,1.91,1.59,3.77,3.44,2.64,17.88-10.82,26.86-30.34,37.73-47.29a106.09,106.09,
0,0,1,10.68-14.27H147a14.32,14.32,0,0,1,3,5.29,2.39,2.39,0,0,0,3.92,1,127.53,127.53,0,0,1,
19.72-12.76l-2.85-.36c1.66,2,1.2,5.56,1.2,8.13,0,3.19.28,6.72,2.71,9.07,3.21,3.09,7.79,2.43,
11.65,1.18C191,80.31,195.49,78.67,200,77q13.59-5.06,26.82-11c1-.45,2-.91,3-1.38l1.74-.8c.31-.
15,1-.28,1.26-.52s.23,0,.17,0c-.3.07-.17-.7-.09,0,0,.18.14.43.17.62a12.45,12.45,0,0,1,0,2.59,
144.3,144.3,0,0,0,.19,14.56A148.9,148.9,0,0,0,239,113.4a2.36,2.36,0,0,0,3.91,1c11.92-13.37,18.
62-30.21,24.8-46.77q5.18-13.83,9.74-27.89c3-9.26,6.24-18.63,7.23-28.37.37-3.66.29-8.14-3.16-10.
39-3.91-2.55-8.5.22-11.46,2.9-6.13,5.57-9.34,13.78-10.52,21.82-1.43,9.77-.7,19.78-.48,29.61.21,
10,.39,20,.65,30,.23,8.61,1.43,18.07,8.79,23.65a15.57,15.57,0,0,0,11.73,2.85c4.36-.61,8.38-2.65,12.25-4.66,1.91-1,3.81-2,5.76-2.93A2.35,2.35,0,0,0,299,101a2.38,2.38,0,0,0-3.2-.84c-3.65,1.7-7.12,3.82-10.84,5.38-3.28,1.39-6.95,2.36-10.47,1.33-7.46-2.18-9.6-11.09-10-17.84-.57-9.13-.47-18.33-.67-27.48s-.72-18.43-.39-27.62c.29-7.79,1.67-15.73,6.09-22.32,1.72-2.56,4.41-5.9,7.52-6.75,3.36-.92,3.15,3.44,3,5.6-.73,8.9-3.74,17.53-6.46,26q-4.19,13-8.89,25.86c-5.63,15.36-11.44,31.14-21.39,44.32-1.18,1.55-2.43,3-3.73,4.51l3.92,1a144.17,144.17,0,0,1-5.3-28.69c-.38-4.84-.53-9.7-.43-14.55.08-3.6.82-10-4.46-10.32-2.31-.12-4.61,1.43-6.64,2.35-2.24,1-4.49,2-6.76,3q-6.72,2.94-13.54,5.61t-13.63,5.1q-3.5,1.25-7,2.42c-1.81.6-3.89,1.37-5.84,1.08a3.28,3.28,0,0,1-2.75-2.37,15.28,15.28,0,0,1-.43-4.71c0-3.91,0-7.8-2.57-11a2.39,2.39,0,0,0-2.84-.37,132.9,132.9,0,0,0-20.66,13.5l3.92,1a19.82,19.82,0,0,0-4.26-7.35,2.36,2.36,0,0,0-3.32,0c-13.87,15.27-21.07,35.3-35,50.47a57.27,57.27,0,0,1-12.41,10.35l3.44,2.65a257.88,257.88,0,0,1,11.51-40.8,2.36,2.36,0,0,0-1.63-2.89,2.4,2.4,0,0,0-2.89,1.64Z" transform="translate(0 0)"/><path class="cls-1" d="M198.69,100.31c2.69,0,2.69-4.18,0-4.18s-2.7,4.18,0,4.18Z" transform="translate(0 0)"/><path class="cls-1" d="M212.2,100.31c2.69,0,2.69-4.18,0-4.18s-2.69,4.18,0,4.18Z" transform="translate(0 0)"/><path class="cls-1"
 d="M190.8,104.53a6.55,6.55,0,0,0-.72,8.21c1.79,2.83,5.15,3.89,8.3,4.29a28.75,28.75,0,0,0,19.25-4.61c2.23-1.48.14-5.1-2.11-3.61a25,25,0,0,1-14.33,4.24c-2.16,0-4.66-.22-6.5-1.47-1.27-.87-2.27-2.86-.93-4.1,2-1.83-1-4.78-3-3Z" transform="translate(0 0)"/></svg>